<svg width="960" height="720" xmlns="http://www.w3.org/2000/svg" xmlns:xlink="http://www.w3.org/1999/xlink" overflow="hidden"><g><rect x="0" y="0" width="960" height="720" fill="#FFFFFF"/><path d="M33.5001 555.5 313.458 555.5" stroke="#4472C4" stroke-width="26.6667" stroke-miterlimit="8" fill="none" fill-rule="evenodd"/><path d="M269.5 414C269.5 287.803 371.803 185.5 498 185.5 624.197 185.5 726.5 287.803 726.5 414 726.5 540.197 624.197 642.5 498 642.5 371.803 642.5 269.5 540.197 269.5 414Z" stroke="#FF0000" stroke-width="26.6667" stroke-miterlimit="8" fill="none" fill-rule="evenodd"/><path d="M321.5 413.5C321.5 316.85 400.522 238.5 498 238.5 595.478 238.5 674.5 316.85 674.5 413.5 674.5 510.15 595.478 588.5 498 588.5 400.522 588.5 321.5 510.15 321.5 413.5Z" stroke="#FF0000" stroke-width="26.6667" stroke-miterlimit="8" fill="none" fill-rule="evenodd"/><path d="M33.5001 282.5 307.458 282.5" stroke="#FF0000" stroke-width="26.6667" stroke-miterlimit="8" fill="none" fill-rule="evenodd"/><rect x="189.5" y="167.5" width="592" height="492" stroke="#000000" stroke-width="13.3333" stroke-miterlimit="8" fill="none"/><path d="M0 0 337 142.5" stroke="#000000" stroke-width="13.3333" stroke-miterlimit="8" fill="none" fill-rule="evenodd" transform="matrix(1 0 0 -1 161.5 177)"/><path d="M493.5 34.5001 808.576 172.014" stroke="#000000" stroke-width="13.3333" stroke-miterlimit="8" fill="none" fill-rule="evenodd"/></g></svg>