<svg width="960" height="720" xmlns="http://www.w3.org/2000/svg" xmlns:xlink="http://www.w3.org/1999/xlink" overflow="hidden"><defs><clipPath id="clip0"><rect x="0" y="0" width="960" height="720"/></clipPath><linearGradient x1="482.623" y1="198.391" x2="482.623" y2="518.391" gradientUnits="userSpaceOnUse" spreadMethod="reflect" id="fill1"><stop offset="0" stop-color="#FF0000"/><stop offset="0.43" stop-color="#FDCAC3"/><stop offset="0.65" stop-color="#BDD7EE"/><stop offset="1" stop-color="#4472C4"/></linearGradient></defs><g clip-path="url(#clip0)"><rect x="0" y="0" width="960" height="720" fill="#FFFFFF"/><path d="M0 0 67.5255 47.7288" stroke="#5B9BD5" stroke-width="26.6667" stroke-miterlimit="8" fill="none" fill-rule="evenodd" transform="matrix(1 0 0 -1 218.5 469.229)"/><path d="M34.5001 469.5 229.592 469.5" stroke="#4472C4" stroke-width="13.3333" stroke-miterlimit="8" fill="none" fill-rule="evenodd"/><path d="M34.5001 456.5 229.592 456.5" stroke="#5B9BD5" stroke-width="13.3333" stroke-miterlimit="8" fill="none" fill-rule="evenodd"/><path d="M34.5001 264.5 229.592 264.5" stroke="#4472C4" stroke-width="13.3333" stroke-miterlimit="8" fill="none" fill-rule="evenodd"/><path d="M218.5 251.5 281.144 282.415" stroke="#4472C4" stroke-width="26.6667" stroke-miterlimit="8" fill="none" fill-rule="evenodd"/><path d="M34.5001 251.5 229.592 251.5" stroke="#5B9BD5" stroke-width="13.3333" stroke-miterlimit="8" fill="none" fill-rule="evenodd"/><path d="M548.209 306.156 548.209 363.389 563.593 363.389C569.069 363.389 573.653 362.65 577.347 361.172 581.041 359.695 584.061 357.631 586.408 354.98 588.755 352.329 590.536 349.156 591.753 345.463 592.97 341.769 593.578 337.749 593.578 333.403 593.578 327.493 592.536 322.626 590.45 318.802 588.364 314.977 585.8 312.153 582.758 310.328 579.716 308.502 576.522 307.351 573.175 306.873 569.829 306.395 566.374 306.156 562.811 306.156ZM525.525 279.69 565.288 279.69C569.286 279.69 573.089 279.842 576.695 280.147 580.302 280.451 584.626 281.103 589.667 282.102 594.708 283.102 599.815 284.949 604.986 287.643 610.157 290.337 614.568 293.749 618.219 297.877 621.869 302.006 624.65 306.829 626.562 312.348 628.474 317.867 629.431 324.06 629.431 330.926 629.431 340.4 627.953 348.787 624.998 356.088 622.043 363.389 617.741 369.538 612.091 374.535 606.442 379.533 599.51 383.335 591.297 385.943 583.084 388.55 573.414 389.854 562.289 389.854L548.209 389.854 548.209 443.697C548.209 444.566 547.927 445.349 547.362 446.044 546.797 446.739 545.863 447.304 544.559 447.739 543.255 448.173 541.517 448.521 539.344 448.782 537.171 449.042 534.39 449.173 531 449.173 527.698 449.173 524.938 449.042 522.722 448.782 520.505 448.521 518.745 448.173 517.442 447.739 516.138 447.304 515.225 446.739 514.704 446.044 514.182 445.349 513.922 444.566 513.922 443.697L513.922 291.945C513.922 287.86 514.986 284.797 517.116 282.754 519.245 280.712 522.048 279.69 525.525 279.69ZM363.131 278.908C366.52 278.908 369.302 279.039 371.474 279.299 373.647 279.56 375.386 279.908 376.689 280.342 377.993 280.777 378.906 281.342 379.427 282.037 379.949 282.732 380.209 283.515 380.209 284.384L380.209 346.31 443.309 346.31 443.309 284.384C443.309 283.515 443.591 282.732 444.156 282.037 444.721 281.342 445.634 280.777 446.894 280.342 448.154 279.908 449.893 279.56 452.109 279.299 454.325 279.039 457.128 278.908 460.518 278.908 463.821 278.908 466.558 279.039 468.731 279.299 470.904 279.56 472.642 279.908 473.946 280.342 475.25 280.777 476.184 281.342 476.749 282.037 477.314 282.732 477.597 283.515 477.597 284.384L477.597 443.697C477.597 444.566 477.314 445.349 476.749 446.044 476.184 446.739 475.25 447.304 473.946 447.739 472.642 448.173 470.904 448.521 468.731 448.782 466.558 449.042 463.821 449.173 460.518 449.173 457.128 449.173 454.325 449.042 452.109 448.782 449.893 448.521 448.154 448.173 446.894 447.739 445.634 447.304 444.721 446.739 444.156 446.044 443.591 445.349 443.309 444.566 443.309 443.697L443.309 375.513 380.209 375.513 380.209 443.697C380.209 444.566 379.949 445.349 379.427 446.044 378.906 446.739 377.993 447.304 376.689 447.739 375.386 448.173 373.647 448.521 371.474 448.782 369.302 449.042 366.52 449.173 363.131 449.173 359.828 449.173 357.068 449.042 354.852 448.782 352.636 448.521 350.876 448.173 349.572 447.739 348.268 447.304 347.334 446.739 346.769 446.044 346.204 445.349 345.922 444.566 345.922 443.697L345.922 284.384C345.922 283.515 346.204 282.732 346.769 282.037 347.334 281.342 348.268 280.777 349.572 280.342 350.876 279.908 352.636 279.56 354.852 279.299 357.068 279.039 359.828 278.908 363.131 278.908Z" fill="url(#fill1)" fill-rule="evenodd"/><text fill="#000000" fill-opacity="0" font-family="Arial,Arial_MSFontService,sans-serif" font-size="170.265" x="345.922" y="427.89">HP</text><path d="M210.5 360.5C210.5 211.383 331.383 90.5001 480.5 90.5001 629.617 90.5001 750.5 211.383 750.5 360.5 750.5 509.617 629.617 630.5 480.5 630.5 331.383 630.5 210.5 509.617 210.5 360.5Z" stroke="#FF0000" stroke-width="26.6667" stroke-miterlimit="8" fill="none" fill-rule="evenodd"/><path d="M268.5 360.5C268.5 243.416 363.416 148.5 480.5 148.5 597.584 148.5 692.5 243.416 692.5 360.5 692.5 477.584 597.584 572.5 480.5 572.5 363.416 572.5 268.5 477.584 268.5 360.5Z" stroke="#4472C4" stroke-width="26.6667" stroke-miterlimit="8" fill="none" fill-rule="evenodd"/></g></svg>