<svg width="960" height="720" xmlns="http://www.w3.org/2000/svg" xmlns:xlink="http://www.w3.org/1999/xlink" overflow="hidden"><defs><clipPath id="clip0"><rect x="0" y="0" width="960" height="720"/></clipPath></defs><g clip-path="url(#clip0)"><rect x="0" y="0" width="960" height="720" fill="#FFFFFF"/><path d="M146.5 592.167 455.526 592.167 455.526 618.833 146.5 618.833ZM159.833 645.5 26.5001 605.5 159.833 565.5Z" fill="#0070C0"/><path d="M461.5 87.1667 767.775 87.1668 767.775 113.833 461.5 113.833ZM754.442 60.5001 887.775 100.5 754.442 140.5Z" fill="#FF0000"/><path d="M13.3334 120 13.3334 493.019-13.3332 493.019-13.3333 120ZM-40 133.333 0 0 40 133.333Z" fill="#FF0000" transform="matrix(1 0 0 -1 461.5 593.519)"/><path d="M26.5001 87.1667 335.526 87.1668 335.526 113.833 26.5 113.833ZM322.192 60.5001 455.526 100.5 322.192 140.5Z" fill="#FF0000"/><path d="M581.5 593.167 902.808 593.167 902.808 619.833 581.5 619.833ZM594.833 646.5 461.5 606.5 594.833 566.5Z" fill="#0070C0"/></g></svg>