<svg width="960" height="720" xmlns="http://www.w3.org/2000/svg" xmlns:xlink="http://www.w3.org/1999/xlink" overflow="hidden"><defs><clipPath id="clip0"><rect x="0" y="0" width="960" height="720"/></clipPath></defs><g clip-path="url(#clip0)"><rect x="0" y="0" width="960" height="720" fill="#FFFFFF"/><path d="M204.5 360.5C204.5 208.069 328.069 84.5001 480.5 84.5001 632.931 84.5001 756.5 208.069 756.5 360.5 756.5 512.931 632.931 636.5 480.5 636.5 328.069 636.5 204.5 512.931 204.5 360.5Z" stroke="#FF0000" stroke-width="26.6667" stroke-miterlimit="8" fill="none" fill-rule="evenodd"/><path d="M263.5 360.5C263.5 240.654 360.654 143.5 480.5 143.5 600.346 143.5 697.5 240.654 697.5 360.5 697.5 480.346 600.346 577.5 480.5 577.5 360.654 577.5 263.5 480.346 263.5 360.5Z" stroke="#FF0000" stroke-width="26.6667" stroke-miterlimit="8" fill="none" fill-rule="evenodd"/></g></svg>