<svg width="960" height="720" xmlns="http://www.w3.org/2000/svg" xmlns:xlink="http://www.w3.org/1999/xlink" overflow="hidden"><defs><clipPath id="clip0"><rect x="0" y="0" width="960" height="720"/></clipPath></defs><g clip-path="url(#clip0)"><rect x="0" y="0" width="960" height="720" fill="#FFFFFF"/><path d="M0 0 794.667 553.667" stroke="#4472C4" stroke-width="33.3333" stroke-miterlimit="8" fill="none" fill-rule="evenodd" transform="matrix(1 0 0 -1 87.5001 631.167)"/><path d="M0 0 0.000104987 554" stroke="#4472C4" stroke-width="33.3333" stroke-miterlimit="8" fill="none" fill-rule="evenodd" transform="matrix(1 0 0 -1 87.5001 631.5)"/><path d="M87.5001 77.5001 882.167 630.833" stroke="#4472C4" stroke-width="33.3333" stroke-miterlimit="8" fill="none" fill-rule="evenodd"/><path d="M0 0 0.000104987 554" stroke="#4472C4" stroke-width="33.3333" stroke-miterlimit="8" fill="none" fill-rule="evenodd" transform="matrix(1 0 0 -1 882.5 631.5)"/><path d="M0 0 0.000104987 319.5" stroke="#4472C4" stroke-width="33.3333" stroke-miterlimit="8" fill="none" fill-rule="evenodd" transform="matrix(1 0 0 -1 485.5 355)"/><path d="M0 0 236 0.000104987" stroke="#4472C4" stroke-width="33.3333" stroke-miterlimit="8" fill="none" fill-rule="evenodd" transform="matrix(-1 0 0 1 602.5 36.5001)"/></g></svg>