<svg width="960" height="720" xmlns="http://www.w3.org/2000/svg" xmlns:xlink="http://www.w3.org/1999/xlink" overflow="hidden"><defs><clipPath id="clip0"><rect x="0" y="0" width="960" height="720"/></clipPath></defs><g clip-path="url(#clip0)"><rect x="0" y="0" width="960" height="720" fill="#FFFFFF"/><path d="M0 0 405.117 282.257" stroke="#4472C4" stroke-width="33.3333" stroke-miterlimit="8" fill="none" fill-rule="evenodd" transform="matrix(1 0 0 -1 222.5 370.757)"/><path d="M0 0 208.865 0.000104987" stroke="#4472C4" stroke-width="33.3333" stroke-miterlimit="8" fill="none" fill-rule="evenodd" transform="matrix(-1 0 0 1 246.365 365.5)"/><path d="M222.5 360.5 627.617 642.587" stroke="#4472C4" stroke-width="33.3333" stroke-miterlimit="8" fill="none" fill-rule="evenodd"/><path d="M0 0 199.35 0.000104987" stroke="#4472C4" stroke-width="33.3333" stroke-miterlimit="8" fill="none" fill-rule="evenodd" transform="matrix(-1 0 0 1 941.85 366.5)"/><path d="M407.5 365.5C407.5 277.134 479.134 205.5 567.5 205.5 655.866 205.5 727.5 277.134 727.5 365.5 727.5 453.866 655.866 525.5 567.5 525.5 479.134 525.5 407.5 453.866 407.5 365.5Z" stroke="#4472C4" stroke-width="33.3333" stroke-miterlimit="8" fill="none" fill-rule="evenodd"/></g></svg>