<svg width="960" height="720" xmlns="http://www.w3.org/2000/svg" xmlns:xlink="http://www.w3.org/1999/xlink" overflow="hidden"><defs><clipPath id="clip0"><rect x="0" y="0" width="960" height="720"/></clipPath></defs><g clip-path="url(#clip0)"><rect x="0" y="0" width="960" height="720" fill="#FFFFFF"/><rect x="183.5" y="63.5001" width="594" height="594" stroke="#000000" stroke-width="33.3333" stroke-miterlimit="8" fill="none"/><path d="M50.5001 142.5 353.894 142.5" stroke="#FF0000" stroke-width="33.3333" stroke-miterlimit="8" fill="none" fill-rule="evenodd"/><path d="M52.5001 571.5 355.894 571.5" stroke="#4472C4" stroke-width="33.3333" stroke-miterlimit="8" fill="none" fill-rule="evenodd"/><path d="M354 142.5C393.488 142.5 425.5 174.512 425.5 214" stroke="#FF0000" stroke-width="33.3333" stroke-miterlimit="8" fill="none" fill-rule="evenodd"/><path d="M425.5 212.5C425.5 252.264 393.488 284.5 354 284.5" stroke="#ED7D31" stroke-width="33.3333" stroke-miterlimit="8" fill="none" fill-rule="evenodd"/><path d="M358 428.5C318.512 428.5 286.5 396.265 286.5 356.5" stroke="#42C642" stroke-width="33.3333" stroke-miterlimit="8" fill="none" fill-rule="evenodd"/><path d="M286.5 355.5C286.5 315.736 318.512 283.5 358 283.5" stroke="#E7CF21" stroke-width="33.3333" stroke-miterlimit="8" fill="none" fill-rule="evenodd"/><path d="M356 428.5C395.488 428.5 427.5 460.736 427.5 500.5" stroke="#44B2C4" stroke-width="33.3333" stroke-miterlimit="8" fill="none" fill-rule="evenodd"/><path d="M427.5 499.5C427.5 539.264 395.488 571.5 356 571.5" stroke="#4472C4" stroke-width="33.3333" stroke-miterlimit="8" fill="none" fill-rule="evenodd"/><path d="M915.894 574.5 612.5 574.5" stroke="#FF0000" stroke-width="33.3333" stroke-miterlimit="8" fill="none" fill-rule="evenodd"/><path d="M913.894 145.5 610.5 145.5" stroke="#4472C4" stroke-width="33.3333" stroke-miterlimit="8" fill="none" fill-rule="evenodd"/><path d="M612.5 574.5C572.736 574.5 540.5 542.265 540.5 502.5" stroke="#FF0000" stroke-width="33.3333" stroke-miterlimit="8" fill="none" fill-rule="evenodd"/><path d="M540.5 503.5C540.5 463.736 572.736 431.5 612.5 431.5" stroke="#ED7D31" stroke-width="33.3333" stroke-miterlimit="8" fill="none" fill-rule="evenodd"/><path d="M608.5 287.5C648.265 287.5 680.5 319.736 680.5 359.5" stroke="#42C642" stroke-width="33.3333" stroke-miterlimit="8" fill="none" fill-rule="evenodd"/><path d="M680.5 361C680.5 400.488 648.265 432.5 608.5 432.5" stroke="#E7CF21" stroke-width="33.3333" stroke-miterlimit="8" fill="none" fill-rule="evenodd"/><path d="M610.5 287.5C570.736 287.5 538.5 255.265 538.5 215.5" stroke="#44B2C4" stroke-width="33.3333" stroke-miterlimit="8" fill="none" fill-rule="evenodd"/><path d="M538.5 217C538.5 177.512 570.735 145.5 610.5 145.5" stroke="#4472C4" stroke-width="33.3333" stroke-miterlimit="8" fill="none" fill-rule="evenodd"/></g></svg>