<svg width="960" height="720" xmlns="http://www.w3.org/2000/svg" xmlns:xlink="http://www.w3.org/1999/xlink" overflow="hidden"><defs><clipPath id="clip0"><rect x="0" y="0" width="960" height="720"/></clipPath></defs><g clip-path="url(#clip0)"><rect x="0" y="0" width="960" height="720" fill="#FFFFFF"/><path d="M282.5 189.5 507 662.5" stroke="#FF0000" stroke-width="33.3333" stroke-miterlimit="8" fill="none" fill-rule="evenodd"/><path d="M100.5 167.5 119 193.5" stroke="#000000" stroke-width="33.3333" stroke-miterlimit="8" fill="none" fill-rule="evenodd"/><path d="M294.5 82.5001 313 108.5" stroke="#000000" stroke-width="33.3333" stroke-miterlimit="8" fill="none" fill-rule="evenodd"/><path d="M366.5 67.5001 385 93.5001" stroke="#000000" stroke-width="33.3333" stroke-miterlimit="8" fill="none" fill-rule="evenodd"/><path d="M434.5 58.5001 453 84.5001" stroke="#000000" stroke-width="33.3333" stroke-miterlimit="8" fill="none" fill-rule="evenodd"/><path d="M506.5 54.5001 525 80.5001" stroke="#000000" stroke-width="33.3333" stroke-miterlimit="8" fill="none" fill-rule="evenodd"/><path d="M561.5 58.5001 580 84.5001" stroke="#000000" stroke-width="33.3333" stroke-miterlimit="8" fill="none" fill-rule="evenodd"/><path d="M633.5 71.5001 652 97.5001" stroke="#000000" stroke-width="33.3333" stroke-miterlimit="8" fill="none" fill-rule="evenodd"/><path d="M696.5 97.5001 715 123.5" stroke="#000000" stroke-width="33.3333" stroke-miterlimit="8" fill="none" fill-rule="evenodd"/><path d="M761.5 127.5 780 153.5" stroke="#000000" stroke-width="33.3333" stroke-miterlimit="8" fill="none" fill-rule="evenodd"/><path d="M820.5 167.5 839 193.5" stroke="#000000" stroke-width="33.3333" stroke-miterlimit="8" fill="none" fill-rule="evenodd"/><path d="M171.5 128.5 190 154.5" stroke="#000000" stroke-width="33.3333" stroke-miterlimit="8" fill="none" fill-rule="evenodd"/><path d="M230.5 100.5 249 126.5" stroke="#000000" stroke-width="33.3333" stroke-miterlimit="8" fill="none" fill-rule="evenodd"/></g></svg>