<svg width="960" height="720" xmlns="http://www.w3.org/2000/svg" xmlns:xlink="http://www.w3.org/1999/xlink" overflow="hidden"><defs><clipPath id="clip0"><rect x="0" y="0" width="960" height="720"/></clipPath></defs><g clip-path="url(#clip0)"><rect x="0" y="0" width="960" height="720" fill="#FFFFFF"/><path d="M282.5 189.5 507 662.5" stroke="#FF0000" stroke-width="33.3333" stroke-miterlimit="8" fill="none" fill-rule="evenodd"/><path d="M100.5 167.5 119 193.5" stroke="#000000" stroke-width="33.3333" stroke-miterlimit="8" fill="none" fill-rule="evenodd"/><path d="M294.5 82.5001 313 108.5" stroke="#000000" stroke-width="33.3333" stroke-miterlimit="8" fill="none" fill-rule="evenodd"/><path d="M366.5 67.5001 385 93.5001" stroke="#000000" stroke-width="33.3333" stroke-miterlimit="8" fill="none" fill-rule="evenodd"/><path d="M434.5 58.5001 453 84.5001" stroke="#000000" stroke-width="33.3333" stroke-miterlimit="8" fill="none" fill-rule="evenodd"/><path d="M506.5 54.5001 525 80.5001" stroke="#000000" stroke-width="33.3333" stroke-miterlimit="8" fill="none" fill-rule="evenodd"/><path d="M561.5 58.5001 580 84.5001" stroke="#000000" stroke-width="33.3333" stroke-miterlimit="8" fill="none" fill-rule="evenodd"/><path d="M633.5 71.5001 652 97.5001" stroke="#000000" stroke-width="33.3333" stroke-miterlimit="8" fill="none" fill-rule="evenodd"/><path d="M696.5 97.5001 715 123.5" stroke="#000000" stroke-width="33.3333" stroke-miterlimit="8" fill="none" fill-rule="evenodd"/><path d="M761.5 127.5 780 153.5" stroke="#000000" stroke-width="33.3333" stroke-miterlimit="8" fill="none" fill-rule="evenodd"/><path d="M820.5 167.5 839 193.5" stroke="#000000" stroke-width="33.3333" stroke-miterlimit="8" fill="none" fill-rule="evenodd"/><path d="M171.5 128.5 190 154.5" stroke="#000000" stroke-width="33.3333" stroke-miterlimit="8" fill="none" fill-rule="evenodd"/><path d="M230.5 100.5 249 126.5" stroke="#000000" stroke-width="33.3333" stroke-miterlimit="8" fill="none" fill-rule="evenodd"/><path d="M612.746 441.76C649.706 404.8 709.63 404.8 746.589 441.76" stroke="#4472C4" stroke-width="20" stroke-miterlimit="8" fill="none" fill-rule="evenodd"/><path d="M511.026 344.216C596.958 256.522 737.709 255.094 825.403 341.026" stroke="#4472C4" stroke-width="20" stroke-miterlimit="8" fill="none" fill-rule="evenodd"/><path d="M562.574 388.263C624.18 329.038 722.131 330.969 781.356 392.574" stroke="#4472C4" stroke-width="20" stroke-miterlimit="8" fill="none" fill-rule="evenodd"/><path d="M0 0 0.000104987 11.8302" stroke="#4472C4" stroke-width="20" stroke-miterlimit="8" fill="none" fill-rule="evenodd" transform="matrix(1 0 0 -1 680 482.83)"/></g></svg>