<svg width="960" height="720" xmlns="http://www.w3.org/2000/svg" xmlns:xlink="http://www.w3.org/1999/xlink" overflow="hidden"><defs><clipPath id="clip0"><rect x="0" y="0" width="960" height="720"/></clipPath></defs><g clip-path="url(#clip0)"><rect x="0" y="0" width="960" height="720" fill="#FFFFFF"/><path d="M54.5001 335C54.5001 218.744 135.76 124.5 236 124.5 336.24 124.5 417.5 218.744 417.5 335 417.5 451.256 336.24 545.5 236 545.5 135.76 545.5 54.5001 451.256 54.5001 335Z" stroke="#4472C4" stroke-width="33.3333" stroke-miterlimit="8" fill="none" fill-rule="evenodd"/><path d="M156.5 171.5 398.5 335 156.5 498.5Z" stroke="#4472C4" stroke-width="33.3333" stroke-miterlimit="8" fill="none" fill-rule="evenodd"/><path d="M0 0 457.402 278.675" stroke="#4472C4" stroke-width="33.3333" stroke-miterlimit="8" fill="none" fill-rule="evenodd" transform="matrix(1 0 0 -1 471.5 479.175)"/><path d="M0 0 0.000104987 278.843" stroke="#4472C4" stroke-width="33.3333" stroke-miterlimit="8" fill="none" fill-rule="evenodd" transform="matrix(1 0 0 -1 471.5 479.343)"/><path d="M471.5 200.5 928.902 479.007" stroke="#4472C4" stroke-width="33.3333" stroke-miterlimit="8" fill="none" fill-rule="evenodd"/><path d="M0 0 0.000104987 278.843" stroke="#4472C4" stroke-width="33.3333" stroke-miterlimit="8" fill="none" fill-rule="evenodd" transform="matrix(1 0 0 -1 928.5 479.343)"/><path d="M0 0 0.000104987 139.841" stroke="#4472C4" stroke-width="33.3333" stroke-miterlimit="8" fill="none" fill-rule="evenodd" transform="matrix(1 0 0 -1 700.5 340.341)"/><path d="M632.5 200.5 632.5 172.5C632.5 157.036 662.945 144.5 700.5 144.5 738.055 144.5 768.5 157.036 768.5 172.5L768.5 200.5Z" stroke="#4472C4" stroke-width="33.3333" stroke-miterlimit="8" fill="none" fill-rule="evenodd"/><path d="M417.5 335.5 471.233 335.5" stroke="#4472C4" stroke-width="33.3333" stroke-miterlimit="8" fill="none" fill-rule="evenodd"/></g></svg>