<svg width="960" height="720" xmlns="http://www.w3.org/2000/svg" xmlns:xlink="http://www.w3.org/1999/xlink" overflow="hidden"><defs><clipPath id="clip0"><rect x="0" y="0" width="960" height="720"/></clipPath></defs><g clip-path="url(#clip0)"><rect x="0" y="0" width="960" height="720" fill="#FFFFFF"/><path d="M0 0 523.456 364.706" stroke="#4472C4" stroke-width="33.3333" stroke-miterlimit="8" fill="none" fill-rule="evenodd" transform="matrix(1 0 0 -1 337.5 537.206)"/><path d="M0 0 0.000104987 364.926" stroke="#4472C4" stroke-width="33.3333" stroke-miterlimit="8" fill="none" fill-rule="evenodd" transform="matrix(1 0 0 -1 337.5 537.426)"/><path d="M337.5 172.5 860.956 536.987" stroke="#4472C4" stroke-width="33.3333" stroke-miterlimit="8" fill="none" fill-rule="evenodd"/><path d="M0 0 0.000104987 364.926" stroke="#4472C4" stroke-width="33.3333" stroke-miterlimit="8" fill="none" fill-rule="evenodd" transform="matrix(1 0 0 -1 861.5 537.426)"/><path d="M0 0 0.000104987 210.458" stroke="#4472C4" stroke-width="33.3333" stroke-miterlimit="8" fill="none" fill-rule="evenodd" transform="matrix(1 0 0 -1 599.5 355.958)"/><path d="M0 0 155.456 0.000104987" stroke="#4472C4" stroke-width="33.3333" stroke-miterlimit="8" fill="none" fill-rule="evenodd" transform="matrix(-1 0 0 1 676.956 145.5)"/><path d="M0 0 337.321 0.000104987" stroke="#4472C4" stroke-width="106.667" stroke-miterlimit="8" fill="none" fill-rule="evenodd" transform="matrix(-1 0 0 1 337.821 357.5)"/></g></svg>