<svg width="960" height="720" xmlns="http://www.w3.org/2000/svg" xmlns:xlink="http://www.w3.org/1999/xlink" overflow="hidden"><defs><clipPath id="clip0"><rect x="0" y="0" width="960" height="720"/></clipPath></defs><g clip-path="url(#clip0)"><rect x="0" y="0" width="960" height="720" fill="#FFFFFF"/><path d="M0 0 63.4576 47.9999" stroke="#FF0000" stroke-width="26.6667" stroke-miterlimit="8" fill="none" fill-rule="evenodd" transform="matrix(1 0 0 -1 221.5 491.5)"/><path d="M36.5001 488.5 243.227 488.5" stroke="#4472C4" stroke-width="26.6667" stroke-miterlimit="8" fill="none" fill-rule="evenodd"/><path d="M33.5001 282.5 285.703 282.5" stroke="#4472C4" stroke-width="26.6667" stroke-miterlimit="8" fill="none" fill-rule="evenodd"/><path d="M210.5 360.5C210.5 211.383 331.383 90.5001 480.5 90.5001 629.617 90.5001 750.5 211.383 750.5 360.5 750.5 509.617 629.617 630.5 480.5 630.5 331.383 630.5 210.5 509.617 210.5 360.5Z" stroke="#FF0000" stroke-width="26.6667" stroke-miterlimit="8" fill="none" fill-rule="evenodd"/><path d="M268.5 360.5C268.5 243.416 363.416 148.5 480.5 148.5 597.584 148.5 692.5 243.416 692.5 360.5 692.5 477.584 597.584 572.5 480.5 572.5 363.416 572.5 268.5 477.584 268.5 360.5Z" stroke="#4472C4" stroke-width="26.6667" stroke-miterlimit="8" fill="none" fill-rule="evenodd"/><path d="M33.5001 224.5 246.653 224.5" stroke="#FF0000" stroke-width="26.6667" stroke-miterlimit="8" fill="none" fill-rule="evenodd"/></g></svg>